<?xml version="1.0" encoding="UTF-8" standalone="no"?>
<svg
   version="1.1"
   id="svg2"
   xml:space="preserve"
   width="155.29872"
   height="59.999996"
   viewBox="0 0 155.29872 59.999997"
   sodipodi:docname="Pathfinder-Heading-Final.svg"
   inkscape:version="1.2.2 (b0a8486541, 2022-12-01)"
   inkscape:export-filename="Pathfinder-Heading.svg"
   inkscape:export-xdpi="36.98"
   inkscape:export-ydpi="36.98"
   xmlns:inkscape="http://www.inkscape.org/namespaces/inkscape"
   xmlns:sodipodi="http://sodipodi.sourceforge.net/DTD/sodipodi-0.dtd"
   xmlns="http://www.w3.org/2000/svg"
   xmlns:svg="http://www.w3.org/2000/svg"
   xmlns:rdf="http://www.w3.org/1999/02/22-rdf-syntax-ns#"
   xmlns:cc="http://creativecommons.org/ns#"
   xmlns:dc="http://purl.org/dc/elements/1.1/"><metadata
     id="metadata8"><rdf:RDF><cc:Work
         rdf:about=""><dc:format>image/svg+xml</dc:format><dc:type
           rdf:resource="http://purl.org/dc/dcmitype/StillImage" /></cc:Work></rdf:RDF></metadata><defs
     id="defs6"><clipPath
       clipPathUnits="userSpaceOnUse"
       id="clipPath18"><path
         d="M 0,792 H 612 V 0 H 0 Z"
         id="path16" /></clipPath></defs><sodipodi:namedview
     pagecolor="#ffffff"
     bordercolor="#666666"
     borderopacity="1"
     objecttolerance="10"
     gridtolerance="10"
     guidetolerance="10"
     inkscape:pageopacity="0"
     inkscape:pageshadow="2"
     inkscape:window-width="1687"
     inkscape:window-height="1026"
     id="namedview4"
     inkscape:showpageshadow="2"
     inkscape:pagecheckerboard="0"
     inkscape:deskcolor="#d1d1d1"
     showgrid="false"
     inkscape:zoom="0.97253788"
     inkscape:cx="-139.32619"
     inkscape:cy="114.64849"
     inkscape:window-x="227"
     inkscape:window-y="40"
     inkscape:window-maximized="0"
     inkscape:current-layer="g14" /><g
     id="g10"
     inkscape:groupmode="layer"
     inkscape:label="Pathfinder Adobe Illustrator file [Converted]"
     transform="matrix(1.3333333,0,0,-1.3333333,-336.71986,613.32358)"><g
       id="g12"><g
         id="g14"
         clip-path="url(#clipPath18)"><g
           id="g20"
           transform="matrix(0.38314201,0,0,0.38314201,274.2062,459.9927)"><path
             d="m 0,0 c 0,0 55.117,-23.411 3.972,-42.146 0,0 -50.066,-21.256 -60.521,-36.742 l 21.25,-3.969 c 7.082,6.396 14.533,12.391 22.383,17.815 7.449,5.151 15.553,8.972 23.146,13.536 1.257,0.754 2.604,1.435 3.833,2.16 2.518,1.498 5.005,3.025 7.377,4.678 4.02,2.812 7.622,6.348 10.293,10.404 6.43,9.789 0.488,20.155 -8.37,25.536 -3.129,1.895 -6.486,3.389 -9.895,4.681 C 9.123,-2.415 4.223,-1.791 0,0"
             style="fill:#244ba6;fill-opacity:1;fill-rule:nonzero;stroke:none"
             id="path22" /></g><path
           d="m 276.57177,429.56674 h -7.11112 v 26.55827 h 7.11112 z"
           style="fill:#d9d8d8;fill-opacity:1;fill-rule:nonzero;stroke:none;stroke-width:0.383141"
           id="path24" /><path
           d="m 269.58823,456.11426 h 6.97548 v -26.55748 h -6.97548 z"
           style="fill:#dad9d9;fill-opacity:1;fill-rule:nonzero;stroke:none;stroke-width:0.383141"
           id="path26" /><path
           d="m 269.71237,456.10584 h 6.8387 v -26.55557 h -6.8387 z"
           style="fill:#dadada;fill-opacity:1;fill-rule:nonzero;stroke:none;stroke-width:0.383141"
           id="path28" /><path
           d="m 269.83804,456.09551 h 6.70269 v -26.55827 h -6.70269 z"
           style="fill:#dbdada;fill-opacity:1;fill-rule:nonzero;stroke:none;stroke-width:0.383141"
           id="path30" /><path
           d="m 269.96332,456.08553 h 6.56592 v -26.55558 h -6.56592 z"
           style="fill:#dbdbdb;fill-opacity:1;fill-rule:nonzero;stroke:none;stroke-width:0.383141"
           id="path32" /><path
           d="m 270.08822,456.0748 h 6.4299 v -26.55711 h -6.4299 z"
           style="fill:#dcdbdc;fill-opacity:1;fill-rule:nonzero;stroke:none;stroke-width:0.383141"
           id="path34" /><path
           d="m 270.21237,456.06408 h 6.29387 v -26.55672 h -6.29387 z"
           style="fill:#dddcdc;fill-opacity:1;fill-rule:nonzero;stroke:none;stroke-width:0.383141"
           id="path36" /><path
           d="m 270.3388,456.05374 h 6.15632 v -26.55711 h -6.15632 z"
           style="fill:#dddddd;fill-opacity:1;fill-rule:nonzero;stroke:none;stroke-width:0.383141"
           id="path38" /><path
           d="m 270.46485,456.04376 h 6.02032 v -26.55634 h -6.02032 z"
           style="fill:#dedddd;fill-opacity:1;fill-rule:nonzero;stroke:none;stroke-width:0.383141"
           id="path40" /><path
           d="m 270.58862,456.03381 h 5.88544 v -26.55634 h -5.88544 z"
           style="fill:#dfdede;fill-opacity:1;fill-rule:nonzero;stroke:none;stroke-width:0.383141"
           id="path42" /><path
           d="m 270.71506,456.02117 h 5.74674 v -26.55635 h -5.74674 z"
           style="fill:#dfdedf;fill-opacity:1;fill-rule:nonzero;stroke:none;stroke-width:0.383141"
           id="path44" /><path
           d="m 270.8388,456.01311 h 5.61189 V 429.4541 h -5.61189 z"
           style="fill:#e0dfdf;fill-opacity:1;fill-rule:nonzero;stroke:none;stroke-width:0.383141"
           id="path46" /><path
           d="m 270.96331,456.00316 h 5.47703 v -26.55902 h -5.47703 z"
           style="fill:#e0e0e0;fill-opacity:1;fill-rule:nonzero;stroke:none;stroke-width:0.383141"
           id="path48" /><path
           d="m 271.08899,455.99205 h 5.34138 v -26.55519 h -5.34138 z"
           style="fill:#e1e0e0;fill-opacity:1;fill-rule:nonzero;stroke:none;stroke-width:0.383141"
           id="path50" /><path
           d="m 271.21428,455.98095 h 5.20345 v -26.55904 h -5.20345 z"
           style="fill:#e2e1e1;fill-opacity:1;fill-rule:nonzero;stroke:none;stroke-width:0.383141"
           id="path52" /><path
           d="m 271.33881,455.97096 h 5.06819 v -26.55709 h -5.06819 z"
           style="fill:#e2e2e2;fill-opacity:1;fill-rule:nonzero;stroke:none;stroke-width:0.383141"
           id="path54" /><path
           d="m 271.46525,455.96063 h 4.93103 V 429.4039 h -4.93103 z"
           style="fill:#e3e2e2;fill-opacity:1;fill-rule:nonzero;stroke:none;stroke-width:0.383141"
           id="path56" /><path
           d="m 271.58822,455.95068 h 4.79734 v -26.55712 h -4.79734 z"
           style="fill:#e3e3e3;fill-opacity:1;fill-rule:nonzero;stroke:none;stroke-width:0.383141"
           id="path58" /><path
           d="m 271.71428,455.94069 h 4.66054 v -26.55364 h -4.66054 z"
           style="fill:#e4e3e4;fill-opacity:1;fill-rule:nonzero;stroke:none;stroke-width:0.383141"
           id="path60" /><path
           d="m 271.8388,455.9292 h 4.523 v -26.55748 h -4.523 z"
           style="fill:#e5e4e4;fill-opacity:1;fill-rule:nonzero;stroke:none;stroke-width:0.383141"
           id="path62" /><path
           d="m 271.96448,455.92041 h 4.38735 v -26.55789 h -4.38735 z"
           style="fill:#e5e5e5;fill-opacity:1;fill-rule:nonzero;stroke:none;stroke-width:0.383141"
           id="path64" /><path
           d="m 272.09053,455.91043 h 4.25096 v -26.55709 h -4.25096 z"
           style="fill:#e6e5e5;fill-opacity:1;fill-rule:nonzero;stroke:none;stroke-width:0.383141"
           id="path66" /><path
           d="m 272.21467,455.90009 h 4.11494 v -26.55634 h -4.11494 z"
           style="fill:#e6e6e6;fill-opacity:1;fill-rule:nonzero;stroke:none;stroke-width:0.383141"
           id="path68" /><path
           d="m 272.34111,455.88937 h 3.97778 v -26.55903 h -3.97778 z"
           style="fill:#e7e6e7;fill-opacity:1;fill-rule:nonzero;stroke:none;stroke-width:0.383141"
           id="path70" /><path
           d="m 272.46524,455.87749 h 3.8433 v -26.55673 h -3.8433 z"
           style="fill:#e8e7e7;fill-opacity:1;fill-rule:nonzero;stroke:none;stroke-width:0.383141"
           id="path72" /><path
           d="m 272.59129,455.86866 h 3.70537 v -26.5567 h -3.70537 z"
           style="fill:#e8e8e8;fill-opacity:1;fill-rule:nonzero;stroke:none;stroke-width:0.383141"
           id="path74" /><path
           d="m 272.71429,455.85833 h 3.57049 v -26.55596 h -3.57049 z"
           style="fill:#e9e8e9;fill-opacity:1;fill-rule:nonzero;stroke:none;stroke-width:0.383141"
           id="path76" /><path
           d="m 272.8411,455.84915 h 3.43372 v -26.55596 h -3.43372 z"
           style="fill:#e9e9e9;fill-opacity:1;fill-rule:nonzero;stroke:none;stroke-width:0.383141"
           id="path78" /><path
           d="m 272.96639,455.83878 h 3.29732 v -26.55824 h -3.29732 z"
           style="fill:#eaeaea;fill-opacity:1;fill-rule:nonzero;stroke:none;stroke-width:0.383141"
           id="path80" /><path
           d="m 273.08899,455.82729 h 3.164 v -26.5571 h -3.164 z"
           style="fill:#ebeaea;fill-opacity:1;fill-rule:nonzero;stroke:none;stroke-width:0.383141"
           id="path82" /><path
           d="m 273.2162,455.81695 h 3.02568 v -26.55673 h -3.02568 z"
           style="fill:#ebebeb;fill-opacity:1;fill-rule:nonzero;stroke:none;stroke-width:0.383141"
           id="path84" /><path
           d="m 273.3411,455.807 h 2.8889 v -26.55482 h -2.8889 z"
           style="fill:#ecebec;fill-opacity:1;fill-rule:nonzero;stroke:none;stroke-width:0.383141"
           id="path86" /><path
           d="m 273.466,455.79587 h 2.7548 v -26.55595 h -2.7548 z"
           style="fill:#ececec;fill-opacity:1;fill-rule:nonzero;stroke:none;stroke-width:0.383141"
           id="path88" /><path
           d="m 273.59129,455.78861 h 2.61686 v -26.55827 h -2.61686 z"
           style="fill:#ededed;fill-opacity:1;fill-rule:nonzero;stroke:none;stroke-width:0.383141"
           id="path90" /><path
           d="m 273.71658,455.7775 h 2.482 v -26.55827 h -2.482 z"
           style="fill:#eeedee;fill-opacity:1;fill-rule:nonzero;stroke:none;stroke-width:0.383141"
           id="path92" /><path
           d="m 273.84111,455.76598 h 2.34521 v -26.55901 h -2.34521 z"
           style="fill:#eeeeee;fill-opacity:1;fill-rule:nonzero;stroke:none;stroke-width:0.383141"
           id="path94" /><path
           d="m 273.96562,455.75641 h 2.2096 v -26.55978 h -2.2096 z"
           style="fill:#efefef;fill-opacity:1;fill-rule:nonzero;stroke:none;stroke-width:0.383141"
           id="path96" /><path
           d="m 274.0936,455.74376 h 2.07087 v -26.55824 h -2.07087 z"
           style="fill:#efefef;fill-opacity:1;fill-rule:nonzero;stroke:none;stroke-width:0.383141"
           id="path98" /><path
           d="m 274.21812,455.73573 h 1.93562 v -26.55826 h -1.93562 z"
           style="fill:#f0f0f0;fill-opacity:1;fill-rule:nonzero;stroke:none;stroke-width:0.383141"
           id="path100" /><path
           d="m 274.3411,455.72537 h 1.80192 v -26.55862 h -1.80192 z"
           style="fill:#f1f0f1;fill-opacity:1;fill-rule:nonzero;stroke:none;stroke-width:0.383141"
           id="path102" /><path
           d="m 274.46677,455.71542 h 1.6636 v -26.55864 h -1.6636 z"
           style="fill:#f1f1f1;fill-opacity:1;fill-rule:nonzero;stroke:none;stroke-width:0.383141"
           id="path104" /><path
           d="m 274.59169,455.70508 h 1.52835 v -26.55481 h -1.52835 z"
           style="fill:#f2f2f2;fill-opacity:1;fill-rule:nonzero;stroke:none;stroke-width:0.383141"
           id="path106" /><path
           d="m 274.71659,455.69395 h 1.39273 v -26.55824 h -1.39273 z"
           style="fill:#f2f2f2;fill-opacity:1;fill-rule:nonzero;stroke:none;stroke-width:0.383141"
           id="path108" /><path
           d="m 274.8411,455.68245 h 1.25747 v -26.55594 h -1.25747 z"
           style="fill:#f3f3f3;fill-opacity:1;fill-rule:nonzero;stroke:none;stroke-width:0.383141"
           id="path110" /><path
           d="m 274.96793,455.67212 h 1.12068 v -26.55557 h -1.12068 z"
           style="fill:#f4f4f4;fill-opacity:1;fill-rule:nonzero;stroke:none;stroke-width:0.383141"
           id="path112" /><path
           d="m 275.09091,455.6637 h 0.98391 v -26.55672 h -0.98391 z"
           style="fill:#f4f4f4;fill-opacity:1;fill-rule:nonzero;stroke:none;stroke-width:0.383141"
           id="path114" /><path
           d="m 275.21658,455.65373 h 0.84866 v -26.55825 h -0.84866 z"
           style="fill:#f5f5f5;fill-opacity:1;fill-rule:nonzero;stroke:none;stroke-width:0.383141"
           id="path116" /><path
           d="m 275.34378,455.643 h 0.71036 v -26.55901 h -0.71036 z"
           style="fill:#f6f5f6;fill-opacity:1;fill-rule:nonzero;stroke:none;stroke-width:0.383141"
           id="path118" /><path
           d="m 275.46831,455.63267 h 0.57318 v -26.55904 h -0.57318 z"
           style="fill:#f6f6f6;fill-opacity:1;fill-rule:nonzero;stroke:none;stroke-width:0.383141"
           id="path120" /><path
           d="m 275.5936,455.62156 h 0.43794 v -26.55634 h -0.43794 z"
           style="fill:#f7f7f7;fill-opacity:1;fill-rule:nonzero;stroke:none;stroke-width:0.383141"
           id="path122" /><path
           d="m 275.71812,455.61235 h 0.30154 v -26.55557 h -0.30154 z"
           style="fill:#f7f7f7;fill-opacity:1;fill-rule:nonzero;stroke:none;stroke-width:0.383141"
           id="path124" /><path
           d="m 275.8411,455.60201 h 0.16782 v -26.55865 h -0.16782 z"
           style="fill:#f8f8f8;fill-opacity:1;fill-rule:nonzero;stroke:none;stroke-width:0.383141"
           id="path126" /><path
           d="m 275.9683,429.03302 h 0.0296 v 26.55827 h -0.0296 z"
           style="fill:#f9f9f9;fill-opacity:1;fill-rule:nonzero;stroke:none;stroke-width:0.383141"
           id="path128" /><g
           id="g130"
           transform="matrix(0.38314201,0,0,0.38314201,275.188,431.31708)"><path
             d="m 0,0 c 0,-0.853 -0.409,-1.545 -0.911,-1.545 -0.497,0 -0.909,0.692 -0.909,1.545 v 61.414 c 0,0.857 0.412,1.548 0.909,1.548 0.502,0 0.911,-0.691 0.911,-1.548 z"
             style="fill:#bbbaba;fill-opacity:1;fill-rule:nonzero;stroke:none"
             id="path132" /></g><g
           id="g134"
           transform="matrix(0.38314201,0,0,0.38314201,276.38156,431.31708)"><path
             d="m 0,0 c 0,-0.853 -0.397,-1.545 -0.896,-1.545 -0.501,0 -0.906,0.692 -0.906,1.545 v 61.346 c 0,0.854 0.405,1.547 0.906,1.547 C -0.397,62.893 0,62.2 0,61.346 Z"
             style="fill:#bbbaba;fill-opacity:1;fill-rule:nonzero;stroke:none"
             id="path136" /></g><g
           id="g138"
           transform="matrix(0.38314201,0,0,0.38314201,272.72976,431.31708)"><path
             d="m 0,0 c 0,-0.853 -0.492,-1.545 -1.11,-1.545 -0.618,0 -1.122,0.692 -1.122,1.545 v 61.346 c 0,0.854 0.504,1.547 1.122,1.547 0.618,0 1.11,-0.693 1.11,-1.547 z"
             style="fill:#bbbaba;fill-opacity:1;fill-rule:nonzero;stroke:none"
             id="path140" /></g><g
           id="g142"
           transform="matrix(0.38314201,0,0,0.38314201,273.98283,431.4043)"><path
             d="m 0,0 c 0,-0.858 -0.436,-1.546 -0.969,-1.546 -0.535,0 -0.975,0.688 -0.975,1.546 v 61.146 c 0,0.846 0.44,1.547 0.975,1.547 0.533,0 0.969,-0.701 0.969,-1.547 z"
             style="fill:#bbbaba;fill-opacity:1;fill-rule:nonzero;stroke:none"
             id="path144" /></g><g
           id="g146"
           transform="matrix(0.38314201,0,0,0.38314201,271.37079,431.36088)"><path
             d="m 0,0 c 0,-0.854 -0.413,-1.549 -0.901,-1.549 -0.503,0 -0.917,0.695 -0.917,1.549 v 61.348 c 0,0.859 0.414,1.552 0.917,1.552 C -0.413,62.9 0,62.207 0,61.348 Z"
             style="fill:#bbbaba;fill-opacity:1;fill-rule:nonzero;stroke:none"
             id="path148" /></g><g
           id="g150"
           transform="matrix(0.38314201,0,0,0.38314201,270.16954,431.32124)"><path
             d="m 0,0 c 0,-0.863 -0.305,-1.556 -0.681,-1.556 -0.375,0 -0.668,0.693 -0.668,1.556 v 61.473 c 0,0.855 0.293,1.551 0.668,1.551 0.376,0 0.681,-0.696 0.681,-1.551 z"
             style="fill:#bbbaba;fill-opacity:1;fill-rule:nonzero;stroke:none"
             id="path152" /></g><g
           id="g154"
           transform="matrix(0.38314201,0,0,0.38314201,277.14,456.03875)"><path
             d="m 0,0 c 0,-0.535 -0.494,-0.963 -1.087,-0.963 h -19.351 c -0.598,0 -1.084,0.428 -1.084,0.963 0,0.521 0.486,0.946 1.084,0.946 H -1.087 C -0.494,0.946 0,0.521 0,0"
             style="fill:#b6b5b5;fill-opacity:1;fill-rule:nonzero;stroke:none"
             id="path156" /></g><g
           id="g158"
           transform="matrix(0.38314201,0,0,0.38314201,278.63628,457.01418)"><path
             d="m 0,0 c 0,-1.004 -1.101,-1.813 -2.479,-1.813 h -24.385 c -1.356,0 -2.479,0.809 -2.479,1.813 0,1 1.123,1.805 2.479,1.805 H -2.479 C -1.101,1.805 0,1 0,0"
             style="fill:#c1c0c0;fill-opacity:1;fill-rule:nonzero;stroke:none"
             id="path160" /></g><g
           id="g162"
           transform="matrix(0.38314201,0,0,0.38314201,268.48581,457.26617)"><path
             d="M 0,0 V 0.003 0.01 c 0,0.178 -0.127,0.327 -0.288,0.327 -0.165,0 -0.301,-0.149 -0.301,-0.327 V -1.772 H 0 Z"
             style="fill:#f9f9f9;fill-opacity:1;fill-rule:nonzero;stroke:none"
             id="path164" /></g><g
           id="g166"
           transform="matrix(0.38314201,0,0,0.38314201,270.02567,457.26617)"><path
             d="M 0,0 V 0.003 0.01 c 0,0.178 -0.13,0.327 -0.292,0.327 -0.161,0 -0.297,-0.149 -0.297,-0.327 V -1.772 H 0 Z"
             style="fill:#f9f9f9;fill-opacity:1;fill-rule:nonzero;stroke:none"
             id="path168" /></g><g
           id="g170"
           transform="matrix(0.38314201,0,0,0.38314201,271.56945,457.26617)"><path
             d="M 0,0 V 0.003 0.01 c -0.004,0.178 -0.141,0.327 -0.299,0.327 -0.159,0 -0.29,-0.149 -0.298,-0.327 V -1.772 H 0 Z"
             style="fill:#f9f9f9;fill-opacity:1;fill-rule:nonzero;stroke:none"
             id="path172" /></g><g
           id="g174"
           transform="matrix(0.38314201,0,0,0.38314201,273.10935,457.26617)"><path
             d="M 0,0 V 0.003 0.01 c 0,0.178 -0.126,0.327 -0.296,0.327 -0.157,0 -0.288,-0.149 -0.288,-0.327 V -1.772 H 0 Z"
             style="fill:#f9f9f9;fill-opacity:1;fill-rule:nonzero;stroke:none"
             id="path176" /></g><g
           id="g178"
           transform="matrix(0.38314201,0,0,0.38314201,274.64957,457.26617)"><path
             d="M 0,0 V 0.003 0.01 c -0.003,0.178 -0.132,0.327 -0.291,0.327 -0.174,0 -0.295,-0.149 -0.302,-0.327 V -1.772 H 0 Z"
             style="fill:#f9f9f9;fill-opacity:1;fill-rule:nonzero;stroke:none"
             id="path180" /></g><g
           id="g182"
           transform="matrix(0.38314201,0,0,0.38314201,276.19299,457.26617)"><path
             d="M 0,0 V 0.003 0.01 h -0.006 c 0,0.178 -0.13,0.327 -0.29,0.327 -0.16,0 -0.29,-0.149 -0.297,-0.327 V -1.772 H 0 Z"
             style="fill:#f9f9f9;fill-opacity:1;fill-rule:nonzero;stroke:none"
             id="path184" /></g><g
           id="g186"
           transform="matrix(0.38314201,0,0,0.38314201,277.73567,457.26617)"><path
             d="M 0,0 V 0.003 0.01 c -0.014,0.178 -0.137,0.327 -0.298,0.327 -0.164,0 -0.29,-0.149 -0.29,-0.327 V -1.772 H 0 Z"
             style="fill:#f9f9f9;fill-opacity:1;fill-rule:nonzero;stroke:none"
             id="path188" /></g><g
           id="g190"
           transform="matrix(0.38314201,0,0,0.38314201,268.38816,457.26617)"><path
             d="M 0,0 V 0.003 0.01 c -0.004,0.178 -0.138,0.327 -0.302,0.327 -0.157,0 -0.293,-0.149 -0.293,-0.327 V -1.772 H 0 Z"
             style="fill:#a9a8a8;fill-opacity:1;fill-rule:nonzero;stroke:none"
             id="path192" /></g><g
           id="g194"
           transform="matrix(0.38314201,0,0,0.38314201,269.92615,457.26617)"><path
             d="M 0,0 V 0.003 0.01 c 0,0.178 -0.127,0.327 -0.292,0.327 -0.16,0 -0.283,-0.149 -0.283,-0.327 V -1.772 H 0 Z"
             style="fill:#a9a8a8;fill-opacity:1;fill-rule:nonzero;stroke:none"
             id="path196" /></g><g
           id="g198"
           transform="matrix(0.38314201,0,0,0.38314201,271.46768,457.26617)"><path
             d="M 0,0 V 0.003 0.01 c -0.004,0.178 -0.139,0.327 -0.294,0.327 -0.161,0 -0.293,-0.149 -0.297,-0.327 V -1.772 H 0 Z"
             style="fill:#a9a8a8;fill-opacity:1;fill-rule:nonzero;stroke:none"
             id="path200" /></g><g
           id="g202"
           transform="matrix(0.38314201,0,0,0.38314201,273.01056,457.26617)"><path
             d="M 0,0 V 0.003 0.01 C -0.007,0.188 -0.129,0.337 -0.298,0.337 -0.456,0.337 -0.59,0.188 -0.59,0.01 V -1.772 H 0 Z"
             style="fill:#a9a8a8;fill-opacity:1;fill-rule:nonzero;stroke:none"
             id="path204" /></g><g
           id="g206"
           transform="matrix(0.38314201,0,0,0.38314201,274.54631,457.26617)"><path
             d="M 0,0 V 0.003 0.01 c 0,0.178 -0.127,0.327 -0.283,0.327 -0.16,0 -0.295,-0.149 -0.295,-0.327 V -1.772 H 0 Z"
             style="fill:#a9a8a8;fill-opacity:1;fill-rule:nonzero;stroke:none"
             id="path208" /></g><g
           id="g210"
           transform="matrix(0.38314201,0,0,0.38314201,276.09195,457.26617)"><path
             d="M 0,0 V 0.003 0.01 c -0.007,0.178 -0.138,0.327 -0.291,0.327 -0.166,0 -0.302,-0.149 -0.302,-0.327 V -1.772 H 0 Z"
             style="fill:#a9a8a8;fill-opacity:1;fill-rule:nonzero;stroke:none"
             id="path212" /></g><g
           id="g214"
           transform="matrix(0.38314201,0,0,0.38314201,277.63353,457.26617)"><path
             d="M 0,0 V 0.003 0.01 c 0,0.178 -0.135,0.327 -0.293,0.327 -0.162,0 -0.29,-0.149 -0.294,-0.327 V -1.772 H 0 Z"
             style="fill:#a9a8a8;fill-opacity:1;fill-rule:nonzero;stroke:none"
             id="path216" /></g><g
           id="g218"
           transform="matrix(0.38314201,0,0,0.38314201,277.14,430.09732)"><path
             d="m 0,0 c 0,0.522 -0.494,0.946 -1.087,0.946 h -19.351 c -0.598,0 -1.084,-0.424 -1.084,-0.946 0,-0.531 0.486,-0.972 1.084,-0.972 H -1.087 C -0.494,-0.972 0,-0.531 0,0"
             style="fill:#b6b5b5;fill-opacity:1;fill-rule:nonzero;stroke:none"
             id="path220" /></g><g
           id="g222"
           transform="matrix(0.38314201,0,0,0.38314201,278.63628,429.11666)"><path
             d="m 0,0 c 0,1.001 -1.101,1.812 -2.479,1.812 h -24.385 c -1.356,0 -2.479,-0.811 -2.479,-1.812 0,-0.991 1.123,-1.8 2.479,-1.8 H -2.479 C -1.101,-1.8 0,-0.991 0,0"
             style="fill:#c1c0c0;fill-opacity:1;fill-rule:nonzero;stroke:none"
             id="path224" /></g><g
           id="g226"
           transform="matrix(0.38314201,0,0,0.38314201,268.48581,428.86559)"><path
             d="m 0,0 v -0.006 -0.007 c 0,-0.178 -0.127,-0.323 -0.288,-0.323 -0.165,0 -0.301,0.145 -0.301,0.323 v 1.8 H 0 Z"
             style="fill:#f9f9f9;fill-opacity:1;fill-rule:nonzero;stroke:none"
             id="path228" /></g><g
           id="g230"
           transform="matrix(0.38314201,0,0,0.38314201,270.02567,428.86559)"><path
             d="m 0,0 v -0.006 -0.007 c 0,-0.178 -0.13,-0.323 -0.292,-0.323 -0.161,0 -0.297,0.145 -0.297,0.323 v 1.8 H 0 Z"
             style="fill:#f9f9f9;fill-opacity:1;fill-rule:nonzero;stroke:none"
             id="path232" /></g><g
           id="g234"
           transform="matrix(0.38314201,0,0,0.38314201,271.56945,428.86559)"><path
             d="m 0,0 v -0.006 -0.007 c -0.004,-0.178 -0.141,-0.323 -0.299,-0.323 -0.159,0 -0.29,0.145 -0.298,0.323 v 1.8 H 0 Z"
             style="fill:#f9f9f9;fill-opacity:1;fill-rule:nonzero;stroke:none"
             id="path236" /></g><g
           id="g238"
           transform="matrix(0.38314201,0,0,0.38314201,273.10935,428.86559)"><path
             d="m 0,0 v -0.006 -0.007 c 0,-0.178 -0.126,-0.323 -0.296,-0.323 -0.157,0 -0.288,0.145 -0.288,0.323 v 1.8 H 0 Z"
             style="fill:#f9f9f9;fill-opacity:1;fill-rule:nonzero;stroke:none"
             id="path240" /></g><g
           id="g242"
           transform="matrix(0.38314201,0,0,0.38314201,274.64957,428.86559)"><path
             d="m 0,0 v -0.006 -0.007 c -0.003,-0.178 -0.132,-0.323 -0.291,-0.323 -0.174,0 -0.295,0.145 -0.302,0.323 v 1.8 H 0 Z"
             style="fill:#f9f9f9;fill-opacity:1;fill-rule:nonzero;stroke:none"
             id="path244" /></g><g
           id="g246"
           transform="matrix(0.38314201,0,0,0.38314201,276.19299,428.86559)"><path
             d="m 0,0 v -0.006 -0.007 h -0.006 c 0,-0.178 -0.13,-0.323 -0.29,-0.323 -0.16,0 -0.29,0.145 -0.297,0.323 v 1.8 H 0 Z"
             style="fill:#f9f9f9;fill-opacity:1;fill-rule:nonzero;stroke:none"
             id="path248" /></g><g
           id="g250"
           transform="matrix(0.38314201,0,0,0.38314201,277.73567,428.86559)"><path
             d="m 0,0 v -0.006 -0.007 c -0.014,-0.178 -0.137,-0.323 -0.298,-0.323 -0.164,0 -0.29,0.145 -0.29,0.323 v 1.8 H 0 Z"
             style="fill:#f9f9f9;fill-opacity:1;fill-rule:nonzero;stroke:none"
             id="path252" /></g><g
           id="g254"
           transform="matrix(0.38314201,0,0,0.38314201,268.38816,428.86559)"><path
             d="m 0,0 v -0.006 -0.007 c -0.004,-0.178 -0.138,-0.323 -0.302,-0.323 -0.157,0 -0.293,0.145 -0.293,0.323 v 1.8 H 0 Z"
             style="fill:#a9a8a8;fill-opacity:1;fill-rule:nonzero;stroke:none"
             id="path256" /></g><g
           id="g258"
           transform="matrix(0.38314201,0,0,0.38314201,269.92615,428.86559)"><path
             d="m 0,0 v -0.006 -0.007 c 0,-0.178 -0.127,-0.323 -0.292,-0.323 -0.16,0 -0.283,0.145 -0.283,0.323 v 1.8 H 0 Z"
             style="fill:#a9a8a8;fill-opacity:1;fill-rule:nonzero;stroke:none"
             id="path260" /></g><g
           id="g262"
           transform="matrix(0.38314201,0,0,0.38314201,271.46768,428.86559)"><path
             d="m 0,0 v -0.006 -0.007 c -0.004,-0.178 -0.139,-0.323 -0.294,-0.323 -0.161,0 -0.293,0.145 -0.297,0.323 v 1.8 H 0 Z"
             style="fill:#a9a8a8;fill-opacity:1;fill-rule:nonzero;stroke:none"
             id="path264" /></g><g
           id="g266"
           transform="matrix(0.38314201,0,0,0.38314201,273.01056,428.86559)"><path
             d="m 0,0 v -0.006 -0.007 c -0.007,-0.178 -0.129,-0.323 -0.298,-0.323 -0.158,0 -0.292,0.145 -0.292,0.323 v 1.8 H 0 Z"
             style="fill:#a9a8a8;fill-opacity:1;fill-rule:nonzero;stroke:none"
             id="path268" /></g><g
           id="g270"
           transform="matrix(0.38314201,0,0,0.38314201,274.54631,428.86559)"><path
             d="m 0,0 v -0.006 -0.007 c 0,-0.178 -0.127,-0.323 -0.283,-0.323 -0.16,0 -0.295,0.145 -0.295,0.323 v 1.8 H 0 Z"
             style="fill:#a9a8a8;fill-opacity:1;fill-rule:nonzero;stroke:none"
             id="path272" /></g><g
           id="g274"
           transform="matrix(0.38314201,0,0,0.38314201,276.09195,428.86559)"><path
             d="m 0,0 v -0.006 -0.007 c -0.007,-0.178 -0.138,-0.323 -0.291,-0.323 -0.166,0 -0.302,0.145 -0.302,0.323 v 1.8 H 0 Z"
             style="fill:#a9a8a8;fill-opacity:1;fill-rule:nonzero;stroke:none"
             id="path276" /></g><g
           id="g278"
           transform="matrix(0.38314201,0,0,0.38314201,277.63353,428.86559)"><path
             d="m 0,0 v -0.006 -0.007 c 0,-0.178 -0.135,-0.323 -0.293,-0.323 -0.162,0 -0.29,0.145 -0.294,0.323 v 1.8 H 0 Z"
             style="fill:#a9a8a8;fill-opacity:1;fill-rule:nonzero;stroke:none"
             id="path280" /></g><g
           id="g282"
           transform="matrix(0.38314201,0,0,0.38314201,278.57042,457.85942)"><path
             d="m 0,0 c 0,-0.394 -0.313,-0.696 -0.692,-0.696 h -28.175 c -0.387,0 -0.7,0.302 -0.7,0.696 0,0.385 0.313,0.7 0.7,0.7 H -0.692 C -0.313,0.7 0,0.385 0,0"
             style="fill:#a5a3a3;fill-opacity:1;fill-rule:nonzero;stroke:none"
             id="path284" /></g><g
           id="g286"
           transform="matrix(0.38314201,0,0,0.38314201,278.70027,428.17188)"><path
             d="m 0,0 c 0,-0.378 -0.304,-0.692 -0.697,-0.692 h -28.156 c -0.388,0 -0.692,0.314 -0.692,0.692 0,0.396 0.304,0.704 0.692,0.704 H -0.697 C -0.304,0.704 0,0.396 0,0"
             style="fill:#a5a3a3;fill-opacity:1;fill-rule:nonzero;stroke:none"
             id="path288" /></g><g
           id="g290"
           transform="matrix(0.38314201,0,0,0.38314201,277.20846,430.35548)"><path
             d="m 0,0 c 0,-0.767 -0.622,-1.379 -1.397,-1.379 -0.767,0 -1.383,0.612 -1.383,1.379 0,0.779 0.616,1.387 1.383,1.387 C -0.622,1.387 0,0.779 0,0"
             style="fill:#a5a3a3;fill-opacity:1;fill-rule:nonzero;stroke:none"
             id="path292" /></g><g
           id="g294"
           transform="matrix(0.38314201,0,0,0.38314201,277.05169,430.35548)"><path
             d="m 0,0 c 0,-0.545 -0.439,-0.979 -0.988,-0.979 -0.534,0 -0.983,0.434 -0.983,0.979 0,0.543 0.449,0.987 0.983,0.987 C -0.439,0.987 0,0.543 0,0"
             style="fill:#f9f9f9;fill-opacity:1;fill-rule:nonzero;stroke:none"
             id="path296" /></g><g
           id="g298"
           transform="matrix(0.38314201,0,0,0.38314201,273.4126,430.29264)"><path
             d="m 0,0 c 0,-0.776 -0.622,-1.389 -1.383,-1.389 -0.768,0 -1.395,0.613 -1.395,1.389 0,0.765 0.627,1.396 1.395,1.396 C -0.622,1.396 0,0.765 0,0"
             style="fill:#a5a3a3;fill-opacity:1;fill-rule:nonzero;stroke:none"
             id="path300" /></g><g
           id="g302"
           transform="matrix(0.38314201,0,0,0.38314201,273.25581,430.29264)"><path
             d="m 0,0 c 0,-0.545 -0.435,-0.984 -0.974,-0.984 -0.548,0 -0.997,0.439 -0.997,0.984 0,0.547 0.449,0.986 0.997,0.986 C -0.435,0.986 0,0.547 0,0"
             style="fill:#f9f9f9;fill-opacity:1;fill-rule:nonzero;stroke:none"
             id="path304" /></g><g
           id="g306"
           transform="matrix(0.38314201,0,0,0.38314201,269.70578,430.22341)"><path
             d="m 0,0 c 0,-0.773 -0.64,-1.391 -1.4,-1.391 -0.767,0 -1.384,0.618 -1.384,1.391 0,0.768 0.617,1.385 1.384,1.385 C -0.64,1.385 0,0.768 0,0"
             style="fill:#a5a3a3;fill-opacity:1;fill-rule:nonzero;stroke:none"
             id="path308" /></g><g
           id="g310"
           transform="matrix(0.38314201,0,0,0.38314201,269.55088,430.22341)"><path
             d="m 0,0 c 0,-0.547 -0.453,-0.981 -0.996,-0.981 -0.547,0 -0.988,0.434 -0.988,0.981 0,0.55 0.441,0.989 0.988,0.989 C -0.453,0.989 0,0.55 0,0"
             style="fill:#f9f9f9;fill-opacity:1;fill-rule:nonzero;stroke:none"
             id="path312" /></g><g
           id="g314"
           transform="matrix(0.38314201,0,0,0.38314201,277.3151,456.02359)"><path
             d="m 0,0 c 0,-0.768 -0.622,-1.394 -1.396,-1.394 -0.768,0 -1.383,0.626 -1.383,1.394 0,0.772 0.615,1.397 1.383,1.397 C -0.622,1.397 0,0.772 0,0"
             style="fill:#a5a3a3;fill-opacity:1;fill-rule:nonzero;stroke:none"
             id="path316" /></g><g
           id="g318"
           transform="matrix(0.38314201,0,0,0.38314201,277.1587,456.02359)"><path
             d="m 0,0 c 0,-0.539 -0.439,-0.976 -0.988,-0.976 -0.534,0 -0.983,0.437 -0.983,0.976 0,0.548 0.449,0.989 0.983,0.989 C -0.439,0.989 0,0.548 0,0"
             style="fill:#f9f9f9;fill-opacity:1;fill-rule:nonzero;stroke:none"
             id="path320" /></g><g
           id="g322"
           transform="matrix(0.38314201,0,0,0.38314201,273.51922,455.9607)"><path
             d="m 0,0 c 0,-0.766 -0.622,-1.395 -1.382,-1.395 -0.77,0 -1.397,0.629 -1.397,1.395 0,0.768 0.627,1.392 1.397,1.392 C -0.622,1.392 0,0.768 0,0"
             style="fill:#a5a3a3;fill-opacity:1;fill-rule:nonzero;stroke:none"
             id="path324" /></g><g
           id="g326"
           transform="matrix(0.38314201,0,0,0.38314201,273.36283,455.9607)"><path
             d="m 0,0 c 0,-0.542 -0.436,-0.984 -0.974,-0.984 -0.549,0 -0.997,0.442 -0.997,0.984 0,0.548 0.448,0.983 0.997,0.983 C -0.436,0.983 0,0.548 0,0"
             style="fill:#f9f9f9;fill-opacity:1;fill-rule:nonzero;stroke:none"
             id="path328" /></g><g
           id="g330"
           transform="matrix(0.38314201,0,0,0.38314201,269.81259,455.8928)"><path
             d="m 0,0 c 0,-0.771 -0.639,-1.389 -1.4,-1.389 -0.768,0 -1.386,0.618 -1.386,1.389 0,0.763 0.618,1.387 1.386,1.387 C -0.639,1.387 0,0.763 0,0"
             style="fill:#a5a3a3;fill-opacity:1;fill-rule:nonzero;stroke:none"
             id="path332" /></g><g
           id="g334"
           transform="matrix(0.38314201,0,0,0.38314201,269.65769,455.8928)"><path
             d="m 0,0 c 0,-0.545 -0.453,-0.991 -0.996,-0.991 -0.546,0 -0.988,0.446 -0.988,0.991 0,0.538 0.442,0.978 0.988,0.978 C -0.453,0.978 0,0.538 0,0"
             style="fill:#f9f9f9;fill-opacity:1;fill-rule:nonzero;stroke:none"
             id="path336" /></g><g
           id="g338"
           transform="matrix(0.8811528,0,0,0.8811528,252.65281,415.24181)"><path
             d="M 0,0 V 10.5 H 7.332 V 8.676 H 2.125 V 6.301 h 4.57 V 4.482 H 2.125 V 0 Z"
             style="fill:#908e8f;fill-opacity:1;fill-rule:nonzero;stroke:none"
             id="path340" /></g><path
           d="m 260.54327,422.06952 h 1.82839 v -6.82806 h -1.82839 z m 0,2.42405 h 1.82839 v -1.66979 h -1.82839 z"
           style="fill:#908e8f;fill-opacity:1;fill-rule:nonzero;stroke:none;stroke-width:0.881149"
           id="path342" /><g
           id="g344"
           transform="matrix(0.8811528,0,0,0.8811528,264.33496,415.24181)"><path
             d="M 0,0 V 7.749 H 2.03 V 6.84 C 2.318,7.213 2.664,7.492 3.06,7.68 3.452,7.877 3.894,7.971 4.377,7.971 5.238,7.971 5.88,7.746 6.304,7.301 6.729,6.857 6.943,6.191 6.943,5.3 V 0 H 4.867 V 4.701 C 4.867,5.255 4.772,5.653 4.586,5.896 4.401,6.137 4.092,6.248 3.663,6.248 3.175,6.248 2.793,6.091 2.506,5.813 2.215,5.518 2.074,5.123 2.074,4.613 V 0 Z"
             style="fill:#908e8f;fill-opacity:1;fill-rule:nonzero;stroke:none"
             id="path346" /></g><g
           id="g348"
           transform="matrix(0.8811528,0,0,0.8811528,276.30755,415.63418)"><path
             d="m 0,0 c 0.04,-0.167 0.093,-0.313 0.167,-0.445 h 2.152 v 0.349 C 2.167,-0.01 2.051,0.108 1.987,0.261 1.923,0.422 1.888,0.67 1.888,0.991 v 4.421 c 0,0.703 -0.29,1.243 -0.868,1.626 -0.575,0.371 -1.399,0.549 -2.489,0.549 -0.985,0 -1.755,-0.222 -2.316,-0.675 C -4.343,6.465 -4.627,5.843 -4.627,5.054 V 4.911 h 1.93 v 0.11 c 0,0.312 0.116,0.54 0.338,0.711 0.22,0.164 0.549,0.25 0.962,0.25 0.457,0 0.785,-0.066 0.975,-0.197 0.199,-0.139 0.291,-0.373 0.291,-0.679 0,-0.399 -0.435,-0.647 -1.316,-0.765 C -1.793,4.298 -2.074,4.258 -2.289,4.229 -3.224,4.08 -3.896,3.814 -4.298,3.437 c -0.41,-0.392 -0.61,-0.961 -0.61,-1.683 0,-0.798 0.2,-1.411 0.604,-1.833 0.408,-0.44 0.985,-0.649 1.741,-0.649 0.558,0 1.048,0.099 1.475,0.315 0.417,0.22 0.766,0.525 1.025,0.93 C -0.06,0.334 -0.039,0.156 0,0 M -0.1,2.653 C -0.1,2.092 -0.258,1.661 -0.575,1.348 -0.902,1.026 -1.339,0.859 -1.898,0.859 c -0.318,0 -0.562,0.088 -0.747,0.253 -0.188,0.175 -0.279,0.398 -0.279,0.697 0,0.271 0.069,0.492 0.217,0.645 0.144,0.156 0.401,0.286 0.763,0.396 0.016,0 0.243,0.054 0.679,0.156 0.442,0.088 0.824,0.213 1.165,0.38 z"
             style="fill:#908e8f;fill-opacity:1;fill-rule:nonzero;stroke:none"
             id="path350" /></g><g
           id="g352"
           transform="matrix(0.8811528,0,0,0.8811528,279.89965,415.24181)"><path
             d="M 0,0 V 7.749 H 2.03 V 6.84 c 0.29,0.373 0.631,0.652 1.027,0.84 0.397,0.197 0.835,0.291 1.318,0.291 0.862,0 1.5,-0.225 1.929,-0.67 C 6.73,6.857 6.943,6.191 6.943,5.3 V 0 H 4.868 v 4.701 c 0,0.554 -0.1,0.952 -0.289,1.195 C 4.399,6.137 4.089,6.248 3.662,6.248 3.175,6.248 2.792,6.091 2.502,5.813 2.213,5.518 2.074,5.123 2.074,4.613 V 0 Z"
             style="fill:#908e8f;fill-opacity:1;fill-rule:nonzero;stroke:none"
             id="path354" /></g><g
           id="g356"
           transform="matrix(0.8811528,0,0,0.8811528,292.03145,417.81557)"><path
             d="M 0,0 H 2.045 C 1.963,-0.988 1.602,-1.762 0.971,-2.319 c -0.639,-0.582 -1.448,-0.87 -2.439,-0.87 -1.129,0 -2.012,0.369 -2.652,1.104 -0.637,0.734 -0.957,1.75 -0.957,3.055 0,1.287 0.327,2.313 0.977,3.046 0.655,0.737 1.554,1.095 2.7,1.095 1,0 1.807,-0.261 2.411,-0.795 C 1.615,3.789 1.958,3.04 2.028,2.093 h -2.057 c -0.057,0.417 -0.202,0.729 -0.434,0.944 -0.23,0.22 -0.541,0.33 -0.915,0.33 -0.514,0 -0.905,-0.197 -1.153,-0.619 -0.252,-0.395 -0.378,-1.005 -0.378,-1.822 0,-0.74 0.127,-1.319 0.395,-1.719 0.258,-0.4 0.639,-0.595 1.136,-0.595 0.387,0 0.697,0.109 0.927,0.347 C -0.218,-0.814 -0.064,-0.468 0,0"
             style="fill:#908e8f;fill-opacity:1;fill-rule:nonzero;stroke:none"
             id="path358" /></g><path
           d="m 295.34792,422.06952 h 1.8284 v -6.82806 h -1.8284 z m 0,2.42405 h 1.8284 v -1.66979 h -1.8284 z"
           style="fill:#908e8f;fill-opacity:1;fill-rule:nonzero;stroke:none;stroke-width:0.881149"
           id="path360" /><g
           id="g362"
           transform="matrix(0.8811528,0,0,0.8811528,303.10226,415.63418)"><path
             d="m 0,0 c 0.04,-0.167 0.098,-0.313 0.167,-0.445 h 2.149 v 0.349 C 2.168,-0.01 2.055,0.108 1.988,0.261 1.92,0.422 1.89,0.67 1.89,0.991 V 5.412 C 1.89,6.115 1.601,6.655 1.026,7.038 0.448,7.409 -0.382,7.587 -1.468,7.587 -2.452,7.587 -3.23,7.365 -3.784,6.912 -4.345,6.465 -4.623,5.843 -4.623,5.054 V 4.911 h 1.932 v 0.11 c 0,0.312 0.113,0.54 0.331,0.711 0.229,0.164 0.547,0.25 0.964,0.25 0.454,0 0.783,-0.066 0.981,-0.197 0.195,-0.139 0.289,-0.373 0.289,-0.679 0,-0.399 -0.438,-0.647 -1.317,-0.765 C -1.791,4.298 -2.074,4.258 -2.287,4.229 -3.224,4.08 -3.889,3.814 -4.3,3.437 -4.708,3.045 -4.912,2.476 -4.912,1.754 c 0,-0.798 0.204,-1.411 0.612,-1.833 0.411,-0.44 0.98,-0.649 1.734,-0.649 0.566,0 1.056,0.099 1.478,0.315 0.427,0.22 0.767,0.525 1.026,0.93 C -0.057,0.334 -0.034,0.156 0,0 m -0.101,2.653 c 0,-0.561 -0.158,-0.992 -0.477,-1.305 -0.32,-0.322 -0.761,-0.489 -1.318,-0.489 -0.32,0 -0.565,0.088 -0.748,0.253 -0.186,0.175 -0.283,0.398 -0.283,0.697 0,0.271 0.077,0.492 0.216,0.645 0.147,0.156 0.402,0.286 0.764,0.396 0.02,0 0.244,0.054 0.686,0.156 0.442,0.088 0.826,0.213 1.16,0.38 z"
             style="fill:#908e8f;fill-opacity:1;fill-rule:nonzero;stroke:none"
             id="path364" /></g><path
           d="m 306.75622,424.49357 h 1.8275 v -9.25211 h -1.8275 z"
           style="fill:#908e8f;fill-opacity:1;fill-rule:nonzero;stroke:none;stroke-width:0.881149"
           id="path366" /><g
           id="g368"
           transform="matrix(0.8811528,0,0,0.8811528,314.24786,418.11076)"><path
             d="m 0,0 h 2.127 c 0.082,-0.571 0.32,-1.002 0.719,-1.279 0.384,-0.287 0.951,-0.419 1.689,-0.419 0.633,0 1.108,0.113 1.431,0.34 0.315,0.226 0.481,0.553 0.481,0.984 0,0.638 -0.922,1.165 -2.755,1.582 C 3.664,1.208 3.648,1.227 3.63,1.227 3.583,1.234 3.503,1.252 3.407,1.27 2.422,1.487 1.721,1.731 1.299,1.997 0.93,2.23 0.647,2.558 0.454,2.953 0.26,3.35 0.161,3.827 0.161,4.377 c 0,1.017 0.347,1.808 1.048,2.34 0.692,0.554 1.697,0.818 3.008,0.818 1.229,0 2.196,-0.291 2.881,-0.867 C 7.792,6.082 8.157,5.273 8.201,4.206 H 6.121 C 6.083,4.729 5.887,5.115 5.529,5.381 5.184,5.655 4.683,5.785 4.029,5.785 3.459,5.785 3.019,5.673 2.714,5.455 2.405,5.233 2.253,4.906 2.253,4.497 2.253,3.941 2.851,3.533 4.05,3.25 4.374,3.175 4.628,3.124 4.805,3.071 5.569,2.881 6.114,2.718 6.434,2.618 6.75,2.514 7.035,2.38 7.274,2.262 7.7,2.018 8.021,1.705 8.234,1.313 8.447,0.918 8.552,0.448 8.552,-0.097 c 0,-1.092 -0.367,-1.939 -1.1,-2.549 -0.742,-0.596 -1.783,-0.892 -3.128,-0.892 -1.32,0 -2.361,0.309 -3.111,0.914 C 0.461,-2.011 0.059,-1.128 0,0"
             style="fill:#908e8f;fill-opacity:1;fill-rule:nonzero;stroke:none"
             id="path370" /></g><g
           id="g372"
           transform="matrix(0.8811528,0,0,0.8811528,327.15834,416.73052)"><path
             d="m 0,0 c -0.226,-0.132 -0.519,-0.2 -0.87,-0.2 -0.505,0 -0.892,0.155 -1.157,0.461 -0.26,0.312 -0.41,0.773 -0.438,1.385 h 5.168 c 0.008,0.06 0.008,0.131 0.013,0.204 v 0.334 c 0,1.339 -0.319,2.366 -0.962,3.08 -0.645,0.726 -1.562,1.079 -2.748,1.079 -1.124,0 -2.007,-0.359 -2.652,-1.088 -0.647,-0.74 -0.97,-1.744 -0.97,-3.01 0,-1.298 0.327,-2.315 0.984,-3.067 0.653,-0.762 1.542,-1.136 2.663,-1.136 0.914,0 1.682,0.234 2.319,0.696 0.629,0.469 1.056,1.106 1.265,1.923 H 0.541 C 0.404,0.368 0.227,0.146 0,0 m -2.017,4.203 c 0.255,0.27 0.616,0.408 1.063,0.408 0.484,0 0.85,-0.138 1.112,-0.404 C 0.417,3.924 0.554,3.523 0.574,2.992 h -3.039 c 0.037,0.531 0.192,0.927 0.448,1.211"
             style="fill:#908e8f;fill-opacity:1;fill-rule:nonzero;stroke:none"
             id="path374" /></g><g
           id="g376"
           transform="matrix(0.8811528,0,0,0.8811528,331.0926,415.24181)"><path
             d="M 0,0 V 7.749 H 1.923 V 6.431 c 0.278,0.54 0.591,0.935 0.943,1.175 0.363,0.248 0.798,0.378 1.287,0.378 h 0.202 c 0.035,0 0.077,-0.013 0.099,-0.013 L 4.463,5.874 H 3.771 C 3.209,5.874 2.784,5.722 2.505,5.431 2.215,5.143 2.074,4.701 2.074,4.108 V 0 Z"
             style="fill:#908e8f;fill-opacity:1;fill-rule:nonzero;stroke:none"
             id="path378" /></g><g
           id="g380"
           transform="matrix(0.8811528,0,0,0.8811528,338.04199,415.24181)"><path
             d="m 0,0 -2.798,7.749 h 2.312 L 1.097,2.188 2.698,7.749 H 4.882 L 2.106,0 Z"
             style="fill:#908e8f;fill-opacity:1;fill-rule:nonzero;stroke:none"
             id="path382" /></g><path
           d="m 343.52496,422.06952 h 1.83192 v -6.82806 h -1.83192 z m 0,2.42405 h 1.83192 v -1.66979 h -1.83192 z"
           style="fill:#908e8f;fill-opacity:1;fill-rule:nonzero;stroke:none;stroke-width:0.881149"
           id="path384" /><g
           id="g386"
           transform="matrix(0.8811528,0,0,0.8811528,351.4512,417.81557)"><path
             d="M 0,0 H 2.041 C 1.944,-0.988 1.593,-1.762 0.958,-2.319 c -0.626,-0.582 -1.44,-0.87 -2.437,-0.87 -1.118,0 -2.008,0.369 -2.641,1.104 -0.639,0.734 -0.965,1.75 -0.965,3.055 0,1.287 0.332,2.313 0.987,3.046 0.65,0.737 1.545,1.095 2.681,1.095 1.008,0 1.813,-0.261 2.423,-0.795 C 1.606,3.789 1.944,3.04 2.028,2.093 H -0.04 c -0.047,0.417 -0.199,0.729 -0.429,0.944 -0.236,0.22 -0.544,0.33 -0.923,0.33 -0.517,0 -0.891,-0.197 -1.144,-0.619 -0.257,-0.395 -0.369,-1.005 -0.369,-1.822 0,-0.74 0.117,-1.319 0.383,-1.719 0.26,-0.4 0.648,-0.595 1.13,-0.595 0.392,0 0.705,0.109 0.93,0.347 C -0.218,-0.814 -0.073,-0.468 0,0"
             style="fill:#908e8f;fill-opacity:1;fill-rule:nonzero;stroke:none"
             id="path388" /></g><g
           id="g390"
           transform="matrix(0.8811528,0,0,0.8811528,358.44447,416.73052)"><path
             d="m 0,0 c -0.227,-0.132 -0.515,-0.2 -0.87,-0.2 -0.501,0 -0.892,0.155 -1.149,0.461 -0.262,0.312 -0.409,0.773 -0.448,1.385 h 5.168 c 0.014,0.06 0.022,0.131 0.022,0.204 0.005,0.086 0.005,0.185 0.005,0.334 0,1.339 -0.327,2.366 -0.97,3.08 -0.649,0.726 -1.563,1.079 -2.749,1.079 -1.125,0 -2.011,-0.359 -2.65,-1.088 -0.65,-0.74 -0.971,-1.744 -0.971,-3.01 0,-1.298 0.321,-2.315 0.979,-3.067 0.66,-0.762 1.557,-1.136 2.67,-1.136 0.91,0 1.688,0.234 2.319,0.696 0.623,0.469 1.063,1.106 1.254,1.923 H 0.539 C 0.413,0.368 0.227,0.146 0,0 m -2.015,4.203 c 0.253,0.27 0.605,0.408 1.066,0.408 0.488,0 0.863,-0.138 1.105,-0.404 C 0.413,3.924 0.565,3.523 0.582,2.992 h -3.049 c 0.052,0.531 0.195,0.927 0.452,1.211"
             style="fill:#908e8f;fill-opacity:1;fill-rule:nonzero;stroke:none"
             id="path392" /></g><g
           id="g394"
           transform="matrix(0.8811528,0,0,0.8811528,361.98626,417.46708)"><path
             d="m 0,0 h 2.08 c 0.016,-0.397 0.156,-0.689 0.418,-0.884 0.265,-0.196 0.67,-0.291 1.206,-0.291 0.398,0 0.707,0.055 0.925,0.192 0.222,0.147 0.329,0.337 0.329,0.586 0,0.352 -0.408,0.618 -1.229,0.793 C 3.395,0.481 3.124,0.53 2.933,0.592 1.924,0.847 1.219,1.147 0.837,1.499 0.428,1.852 0.248,2.334 0.248,2.932 0.248,3.723 0.514,4.357 1.096,4.819 1.661,5.281 2.44,5.507 3.42,5.507 4.455,5.507 5.269,5.285 5.861,4.819 6.447,4.362 6.765,3.714 6.8,2.884 H 4.786 C 4.768,3.202 4.638,3.448 4.411,3.637 4.181,3.815 3.859,3.902 3.436,3.902 3.045,3.902 2.759,3.844 2.558,3.723 2.374,3.611 2.275,3.422 2.275,3.196 2.275,2.884 2.783,2.617 3.815,2.383 4.051,2.332 4.237,2.286 4.367,2.247 5.404,2 6.107,1.717 6.486,1.365 6.857,1.029 7.057,0.547 7.057,-0.087 7.057,-0.968 6.749,-1.629 6.125,-2.098 5.508,-2.56 4.608,-2.794 3.42,-2.794 2.346,-2.794 1.51,-2.551 0.91,-2.071 0.309,-1.584 0,-0.923 0,-0.087 Z"
             style="fill:#908e8f;fill-opacity:1;fill-rule:nonzero;stroke:none"
             id="path396" /></g><g
           id="g406"
           transform="matrix(0.77126746,0,0,0.77126746,288.23085,434.98874)"><path
             d="m 0,0 c 0,1.701 -0.321,2.905 -0.974,3.63 -0.953,1.049 -2.445,1.578 -4.466,1.578 -1.299,0 -2.533,-0.218 -3.705,-0.687 -0.721,-0.278 -1.47,-0.735 -2.248,-1.384 v -3.816 c 0.604,0.666 1.305,1.189 2.083,1.554 1.05,0.487 2.096,0.726 3.138,0.726 0.519,0 0.986,-0.079 1.41,-0.26 0.568,-0.24 0.849,-0.578 0.849,-1.022 0,-0.411 -0.176,-0.715 -0.515,-0.906 -0.44,-0.234 -1.12,-0.452 -2.069,-0.617 -1.178,-0.218 -1.911,-0.365 -2.185,-0.47 -1.171,-0.376 -1.986,-0.852 -2.473,-1.427 -0.592,-0.7 -0.884,-1.541 -0.884,-2.489 0,-1.167 0.388,-2.076 1.193,-2.755 0.758,-0.66 1.707,-0.996 2.896,-0.996 1.218,0 2.244,0.341 3.074,1.015 0.457,0.352 0.839,0.896 1.139,1.627 h 0.153 c -0.105,-0.947 -0.153,-1.448 -0.153,-1.514 v -0.64 H 0 Z m -4.289,-5.011 c -0.418,-1.005 -1.151,-1.493 -2.213,-1.493 -0.393,0 -0.738,0.114 -1.017,0.339 -0.277,0.239 -0.418,0.558 -0.418,0.949 0,0.383 0.154,0.709 0.466,0.984 0.243,0.21 0.714,0.426 1.443,0.652 1.08,0.323 1.778,0.601 2.115,0.818 -0.038,-0.989 -0.161,-1.731 -0.376,-2.249"
             style="fill:#244ba6;fill-opacity:1;fill-rule:nonzero;stroke:none"
             id="path408" /></g><g
           id="g410"
           transform="matrix(0.77126746,0,0,0.77126746,294.21119,438.54236)"><path
             d="M 0,0 H 4.583 V -3.975 H 0 c 0.035,-1.254 0.055,-2.202 0.055,-2.821 v -1 c -0.046,-1.767 0.53,-2.671 1.692,-2.671 0.924,0 1.749,0.444 2.46,1.322 v -3.142 c -0.519,-0.516 -1.023,-0.885 -1.493,-1.121 -0.728,-0.362 -1.582,-0.54 -2.575,-0.54 -1.769,0 -2.991,0.532 -3.643,1.585 -0.539,0.852 -0.809,2.38 -0.809,4.602 0,1.183 0.057,2.428 0.141,3.68 h -2.287 v 2.862 c 2.07,0.593 3.441,2.16 4.124,4.666 H 0 Z"
             style="fill:#244ba6;fill-opacity:1;fill-rule:nonzero;stroke:none"
             id="path412" /></g><g
           id="g414"
           transform="matrix(0.77126746,0,0,0.77126746,299.0549,427.78449)"><path
             d="m 0,0 v 16.915 h 4.552 v -3.019 c 0,-0.416 -0.039,-1.384 -0.157,-2.902 h 0.157 c 0.671,2.051 2.09,3.078 4.258,3.078 2.593,0 4.017,-1.159 4.272,-3.478 0.026,-0.286 0.04,-1.056 0.04,-2.327 V 0 H 8.569 V 7.257 C 8.569,7.854 8.541,8.279 8.488,8.528 8.296,9.372 7.745,9.789 6.807,9.789 5.957,9.789 5.348,9.429 4.966,8.711 4.691,8.198 4.552,7.379 4.552,6.256 V 0 Z"
             style="fill:#244ba6;fill-opacity:1;fill-rule:nonzero;stroke:none"
             id="path416" /></g><g
           id="g418"
           transform="matrix(0.47410839,0,0,0.47410839,243.99399,426.10278)"><path
             d="m 150.09621,20.280283 h 7.449 v -5.409025 h -6.28423 V 3.5472818 h -7.4002 V 14.871258 h -3.24867 v 5.409025 h 3.24867 c -0.30095,1.584478 -0.43109,2.809439 -0.43109,3.694405 0,1.939115 0.62956,3.538234 1.89356,4.784343 1.51616,1.472231 3.61795,2.215667 6.28911,2.215667 2.18964,0 4.31258,-0.460377 6.41437,-1.423428 v -5.265868 c -1.41041,0.86219 -2.8436,1.288405 -4.32071,1.288405 -2.40112,0 -3.60981,-1.259123 -3.60981,-3.808279 z"
             style="fill:#244ba6;fill-opacity:1;fill-rule:nonzero;stroke:none;stroke-width:1.62677"
             id="path420" /></g><g
           id="g422"
           transform="matrix(0.77126746,0,0,0.77126746,326.53061,427.78449)"><path
             d="m 0,0 v 13.61 h 4.243 v -1.863 c 0,-0.461 -0.055,-1.07 -0.154,-1.835 h 0.154 c 0.241,1.209 0.669,2.131 1.277,2.776 0.876,0.922 2.023,1.384 3.429,1.384 1.125,0 2.048,-0.279 2.799,-0.855 0.759,-0.617 1.229,-1.461 1.383,-2.558 0.037,-0.272 0.067,-1.056 0.067,-2.357 V 0 H 8.643 V 6.623 C 8.643,7.889 8.55,8.684 8.36,9.031 8.096,9.538 7.603,9.789 6.87,9.789 5.926,9.789 5.24,9.354 4.845,8.484 4.661,8.075 4.56,7.363 4.56,6.374 V 0 Z"
             style="fill:#244ba6;fill-opacity:1;fill-rule:nonzero;stroke:none"
             id="path424" /></g><g
           id="g426"
           transform="matrix(0.77126746,0,0,0.77126746,345.0583,441.20108)"><path
             d="M 0,0 V -3.638 C 0,-4.024 0.058,-4.561 0.145,-5.267 H 0.032 c -0.809,1.621 -2.053,2.42 -3.743,2.42 -0.795,0 -1.538,-0.16 -2.209,-0.496 -1.015,-0.495 -1.74,-1.235 -2.175,-2.228 -0.622,-1.352 -0.918,-2.879 -0.918,-4.541 0,-0.996 0.12,-1.952 0.341,-2.862 0.318,-1.219 0.76,-2.158 1.351,-2.806 0.992,-1.075 2.202,-1.616 3.656,-1.616 1.047,0 1.951,0.315 2.705,0.893 0.465,0.36 0.932,0.986 1.4,1.857 h 0.123 c -0.149,-0.852 -0.214,-1.452 -0.214,-1.827 v -0.434 H 4.553 V 0 Z m -0.169,-8.032 c 0.38,-0.536 0.57,-1.239 0.57,-2.11 0,-0.936 -0.204,-1.713 -0.613,-2.344 -0.501,-0.741 -1.187,-1.107 -2.07,-1.107 -1.575,0 -2.367,1.061 -2.367,3.198 0,2.207 0.861,3.307 2.557,3.281 0.845,-0.004 1.488,-0.308 1.923,-0.918"
             style="fill:#244ba6;fill-opacity:1;fill-rule:nonzero;stroke:none"
             id="path428" /></g><g
           id="g430"
           transform="matrix(0.77126746,0,0,0.77126746,360.08822,433.75202)"><path
             d="m 0,0 c 0,2.083 -0.492,3.727 -1.472,4.919 -1.063,1.262 -2.626,1.893 -4.679,1.893 -2.206,0 -3.904,-0.631 -5.078,-1.932 -1.134,-1.231 -1.71,-2.957 -1.71,-5.177 0,-2.445 0.696,-4.338 2.072,-5.707 1.167,-1.148 2.749,-1.733 4.746,-1.733 1.314,0 2.498,0.279 3.537,0.784 0.592,0.286 1.2,0.757 1.822,1.391 v 3.026 h -0.174 c -0.33,-0.502 -0.661,-0.871 -1,-1.128 -0.84,-0.637 -1.928,-0.963 -3.234,-0.963 -1.377,0 -2.373,0.393 -2.994,1.181 -0.323,0.408 -0.51,0.947 -0.554,1.631 H -0.16 C -0.057,-1.176 0,-0.566 0,0 m -8.718,1.19 c 0.073,1.428 0.999,2.146 2.788,2.146 1.01,0 1.749,-0.249 2.242,-0.744 0.295,-0.287 0.502,-0.765 0.639,-1.402 z"
             style="fill:#244ba6;fill-opacity:1;fill-rule:nonzero;stroke:none"
             id="path432" /></g><g
           id="g434"
           transform="matrix(0.77126746,0,0,0.77126746,361.57507,427.78449)"><path
             d="M 0,0 V 13.61 H 4.167 L 3.885,9.398 h 0.149 c 0.503,3.114 1.674,4.674 3.548,4.674 0.706,0 1.397,-0.236 2.063,-0.706 L 9.406,8.563 H 9.236 C 8.701,9.141 8.088,9.429 7.409,9.429 6.499,9.429 5.816,9.093 5.328,8.396 4.707,7.509 4.398,5.727 4.398,3.063 4.398,2.215 4.421,1.193 4.464,0 Z"
             style="fill:#244ba6;fill-opacity:1;fill-rule:nonzero;stroke:none"
             id="path436" /></g><g
           id="g438"
           transform="matrix(0.77126746,0,0,0.77126746,320.78899,438.27342)"><path
             d="M 0,0 V -13.6 H 4.459 V -0.016 C 2.619,-0.016 0.848,0 0,0"
             style="fill:#244ba6;fill-opacity:1;fill-rule:nonzero;stroke:none"
             id="path440" /></g><g
           id="g442"
           transform="matrix(0.77126746,0,0,0.77126746,324.81176,440.69344)"><path
             d="m 0,0 c 0,-0.938 -1.333,-1.701 -2.985,-1.701 -1.653,0 -2.987,0.763 -2.987,1.701 0,0.944 1.334,1.7 2.987,1.7 C -1.333,1.7 0,0.944 0,0"
             style="fill:#244ba6;fill-opacity:1;fill-rule:nonzero;stroke:none"
             id="path444" /></g></g></g></g></svg>
