<svg xmlns="http://www.w3.org/2000/svg" width="780" height="550" viewBox="0 1050 780 550" fill="none">
  <title>Windward Koolau cliffs, mobile composition</title>
  <desc>The same rising Koolau ridgeline and flutes descending toward the lower left, composed above calm ocean water.</desc>
  <rect width="780" height="1600" fill="#f8f5ed"/>
  <circle cx="526" cy="1102" r="36" fill="#e6cf9b"/>
  <g transform="matrix(.78 0 0 .78 -660 914)">
    <g id="pali-cliffs">
      <path d="M923 779L975 688 999 640 1021 623 1044 579 1055 568 1071 563 1090 537 1107 530 1122 504 1140 488 1159 493 1180 480 1200 482 1225 462 1248 456 1272 460 1297 447 1320 450 1339 434 1355 428 1378 433 1400 420 1427 417 1452 394 1473 398 1496 382 1515 384 1536 363 1555 348 1576 352 1596 335 1614 337 1637 317 1660 301 1679 306 1703 283 1722 287 1744 268 1758 271 1770 253 1791 257 1814 240 1828 243 1840 234V798Z" fill="#738a69"/>
      <g fill="#426957">
        <path d="M1055 568L1071 563 1090 537 1107 530 1122 504 1140 488 1129 535 1114 568 1109 594 1079 630 1044 660 984 704 1015 661 1037 620 1042 596Z"/>
        <path d="M1140 488L1159 493 1180 480 1200 482 1225 462 1248 456 1232 504 1228 536 1204 574 1193 605 1157 641 1080 687 1106 646 1124 602 1128 569 1138 532Z"/>
        <path d="M1248 456L1272 460 1297 447 1320 450 1339 434 1355 428 1336 481 1331 522 1311 555 1302 591 1270 624 1170 672 1209 629 1221 592 1234 558 1238 515Z"/>
        <path d="M1355 428L1378 433 1400 420 1427 417 1452 394 1438 448 1433 489 1414 526 1407 568 1379 609 1280 683 1309 630 1328 580 1334 537 1349 489Z"/>
        <path d="M1452 394L1473 398 1496 382 1515 384 1536 363 1555 348 1537 405 1531 449 1510 493 1504 541 1478 582 1447 617 1370 665 1403 614 1418 564 1424 516 1441 459Z"/>
        <path d="M1555 348L1576 352 1596 335 1614 337 1637 317 1660 301 1643 365 1637 411 1612 461 1608 506 1583 554 1548 602 1467 688 1498 624 1519 568 1525 516 1541 460 1545 402Z"/>
        <path d="M1660 301L1679 306 1703 283 1722 287 1744 268 1758 271 1770 253 1750 317 1747 361 1725 410 1719 453 1694 500 1682 548 1634 607 1568 670 1600 610 1623 549 1627 502 1644 448 1647 390Z"/>
        <path d="M1770 253L1791 257 1814 240 1828 243 1840 234V350L1823 396 1817 442 1793 494 1780 542 1731 606 1674 665 1704 598 1725 536 1731 484 1749 425 1755 357Z"/>
      </g>
      <g fill="#97a57b">
        <path d="M1055 568L1056 596 1047 626 1022 665 996 689 1028 625 1043 593Z"/>
        <path d="M1140 488L1148 530 1140 574 1137 603 1115 649 1089 670 1122 599 1126 565 1138 529Z"/>
        <path d="M1248 456L1258 506 1252 548 1238 585 1236 610 1210 644 1222 587 1237 541 1244 504Z"/>
        <path d="M1355 428L1364 480 1357 520 1342 563 1337 601 1316 639 1288 660 1323 597 1329 553 1346 512 1354 478Z"/>
        <path d="M1452 394L1460 445 1455 487 1439 532 1435 576 1418 612 1384 647 1422 572 1426 525 1443 481 1451 443Z"/>
        <path d="M1555 348L1563 402 1559 449 1541 499 1538 549 1523 592 1491 640 1517 580 1524 543 1527 493 1546 443 1552 399Z"/>
        <path d="M1660 301L1669 359 1663 405 1648 453 1643 502 1626 553 1593 613 1616 550 1629 494 1634 447 1651 397 1658 356Z"/>
        <path d="M1770 253L1778 309 1772 358 1755 410 1750 461 1735 509 1700 575 1724 510 1736 456 1741 405 1759 351 1768 308Z"/>
      </g>
      <path d="M931 786C1003 741 1073 699 1145 701C1221 706 1274 722 1345 711C1418 697 1483 698 1557 712C1658 732 1740 715 1840 720V810Z" fill="#345a4b"/>
    </g>
  </g>
  <path d="M0 1499c235-71 308-7 483-12 116-3 212-12 297-3v116H0Z" fill="#dbe6df"/>
  <path d="M0 1551c179-52 312 5 456-17s217-20 324-9v75H0Z" fill="#91b8b1"/>
  <path d="M391 1477c146-26 206 29 389 9v26c-189 1-231-40-389-35Z" fill="#e6cf9b"/>
  <path d="M780 1558c-149-16-239 35-349 26-86-8-128-21-233 16" stroke="#f8f5ed" stroke-width="3"/>
</svg>
